/* XPM */
static char * bird_xpm[] = {
"50 49 381 2",
"  	c None",
". 	c #731327",
"+ 	c #A01D39",
"@ 	c #81162D",
"# 	c #9B1C37",
"$ 	c #BA2343",
"% 	c #9A1C37",
"& 	c #480917",
"* 	c #A81F3C",
"= 	c #951B35",
"- 	c #6B1224",
"; 	c #84172F",
"> 	c #85182F",
", 	c #761429",
"' 	c #8E1A32",
") 	c #B72242",
"! 	c #741428",
"~ 	c #6F1226",
"{ 	c #B92343",
"] 	c #B32240",
"^ 	c #A21F3A",
"/ 	c #530C1A",
"( 	c #5F0F1F",
"_ 	c #600E1F",
": 	c #570C1B",
"< 	c #8D1932",
"[ 	c #961B35",
"} 	c #931B34",
"| 	c #9B1D37",
"1 	c #B32241",
"2 	c #B82342",
"3 	c #BB2343",
"4 	c #B72342",
"5 	c #AE213F",
"6 	c #9F1D39",
"7 	c #80162C",
"8 	c #3F0713",
"9 	c #000000",
"0 	c #580D1D",
"a 	c #971C36",
"b 	c #5D0E1F",
"c 	c #2E040C",
"d 	c #881830",
"e 	c #991C36",
"f 	c #4B0917",
"g 	c #450815",
"h 	c #A51E3B",
"i 	c #9E193C",
"j 	c #650C26",
"k 	c #0E0103",
"l 	c #550C1C",
"m 	c #AF213F",
"n 	c #B12041",
"o 	c #9B173D",
"p 	c #7C1130",
"q 	c #28030B",
"r 	c #570D1C",
"s 	c #B32140",
"t 	c #AD1E40",
"u 	c #891435",
"v 	c #2F030E",
"w 	c #480916",
"x 	c #8C1437",
"y 	c #2D030E",
"z 	c #2D040C",
"A 	c #A71F3C",
"B 	c #B92243",
"C 	c #A1193E",
"D 	c #8A1435",
"E 	c #030001",
"F 	c #911A33",
"G 	c #B52142",
"H 	c #A0193E",
"I 	c #9C173D",
"J 	c #8C1733",
"K 	c #110103",
"L 	c #691124",
"M 	c #B82243",
"N 	c #AF1F41",
"O 	c #A91D40",
"P 	c #AA1D40",
"Q 	c #B32042",
"R 	c #7D152B",
"S 	c #2A040B",
"T 	c #AD203E",
"U 	c #B42241",
"V 	c #490917",
"W 	c #84172E",
"X 	c #B62242",
"Y 	c #9D1D38",
"Z 	c #040101",
"` 	c #3D0612",
" .	c #B62142",
"..	c #AC1E40",
"+.	c #B42142",
"@.	c #5E0E1F",
"#.	c #7F162C",
"$.	c #A51B3F",
"%.	c #A31A3E",
"&.	c #AE1F41",
"*.	c #A91D3F",
"=.	c #AE1F40",
"-.	c #020000",
";.	c #150204",
">.	c #B22042",
",.	c #A61C3F",
"'.	c #A31B3E",
").	c #A41B3E",
"!.	c #A81C3F",
"~.	c #B01F41",
"{.	c #490A17",
"].	c #640F22",
"^.	c #A71C3F",
"/.	c #B42141",
"(.	c #B22041",
"_.	c #85172E",
":.	c #010000",
"<.	c #921A33",
"[.	c #B32142",
"}.	c #9C1D38",
"|.	c #A11E39",
"1.	c #B22140",
"2.	c #A81C40",
"3.	c #B32041",
"4.	c #A41E3B",
"5.	c #140204",
"6.	c #1A0105",
"7.	c #991939",
"8.	c #B02041",
"9.	c #5C0F1F",
"0.	c #390610",
"a.	c #711326",
"b.	c #9E1D39",
"c.	c #A21A3E",
"d.	c #AE2040",
"e.	c #38050F",
"f.	c #31040F",
"g.	c #490A18",
"h.	c #3B0711",
"i.	c #79142A",
"j.	c #83172D",
"k.	c #150205",
"l.	c #520C1B",
"m.	c #51091D",
"n.	c #9E183D",
"o.	c #400813",
"p.	c #0B0102",
"q.	c #3C0712",
"r.	c #691123",
"s.	c #2E050C",
"t.	c #0A0101",
"u.	c #560D1C",
"v.	c #6B0D28",
"w.	c #9D183D",
"x.	c #420814",
"y.	c #480815",
"z.	c #86162E",
"A.	c #700F2B",
"B.	c #9C183D",
"C.	c #8E1833",
"D.	c #640C26",
"E.	c #726F6F",
"F.	c #767676",
"G.	c #3C3C3C",
"H.	c #050505",
"I.	c #000101",
"J.	c #4F0B1A",
"K.	c #B52241",
"L.	c #88172F",
"M.	c #710F2B",
"N.	c #A41B3F",
"O.	c #8D1136",
"P.	c #C6C5C5",
"Q.	c #FDFDFD",
"R.	c #FBFBFB",
"S.	c #B0B0B0",
"T.	c #1A1A1A",
"U.	c #CBCBCB",
"V.	c #727272",
"W.	c #7C7C7C",
"X.	c #606060",
"Y.	c #C6C6C6",
"Z.	c #B3B3B3",
"`.	c #810A30",
" +	c #B02040",
".+	c #6F0F2A",
"++	c #8E1337",
"@+	c #ADABAB",
"#+	c #FEFEFE",
"$+	c #FFFFFF",
"%+	c #EFEFEF",
"&+	c #CECECE",
"*+	c #CACACA",
"=+	c #5D564E",
"-+	c #83807E",
";+	c #B5B5B5",
">+	c #FCFCFC",
",+	c #C9C8C8",
"'+	c #8F0E36",
")+	c #670C26",
"!+	c #A41A3E",
"~+	c #9A173D",
"{+	c #624247",
"]+	c #D1D1D1",
"^+	c #F6F6F6",
"/+	c #E2E2E2",
"(+	c #9A8B7A",
"_+	c #C79317",
":+	c #F8B81F",
"<+	c #ECAF1D",
"[+	c #C99416",
"}+	c #A78D6A",
"|+	c #C0C0C0",
"1+	c #7D696C",
"2+	c #99173C",
"3+	c #AE1E40",
"4+	c #530D1B",
"5+	c #450719",
"6+	c #AD1F40",
"7+	c #921539",
"8+	c #592932",
"9+	c #5B5A5A",
"0+	c #9F782E",
"a+	c #F4B51E",
"b+	c #FBBA1F",
"c+	c #FAB91F",
"d+	c #DCA31B",
"e+	c #7E4C1E",
"f+	c #9B183B",
"g+	c #9F193E",
"h+	c #3B0610",
"i+	c #250209",
"j+	c #96163B",
"k+	c #871633",
"l+	c #A77A14",
"m+	c #F9B91F",
"n+	c #F3B41E",
"o+	c #9B671E",
"p+	c #AD203F",
"q+	c #A31E3A",
"r+	c #060001",
"s+	c #801232",
"t+	c #84551A",
"u+	c #FCBB1F",
"v+	c #884D22",
"w+	c #83162D",
"x+	c #55091F",
"y+	c #BB2D47",
"z+	c #C05059",
"A+	c #C4736F",
"B+	c #89735E",
"C+	c #6C5433",
"D+	c #7F560E",
"E+	c #875C0F",
"F+	c #8C620F",
"G+	c #A57612",
"H+	c #BC8A15",
"I+	c #C18F17",
"J+	c #DDA31B",
"K+	c #EFB11D",
"L+	c #F5B51E",
"M+	c #CC9718",
"N+	c #9C1E37",
"O+	c #470A16",
"P+	c #020001",
"Q+	c #851432",
"R+	c #BC314A",
"S+	c #CC8078",
"T+	c #DBAF9A",
"U+	c #E2C4A8",
"V+	c #C1A58C",
"W+	c #9D692F",
"X+	c #F29A1F",
"Y+	c #F69D1F",
"Z+	c #F0991E",
"`+	c #E28F1C",
" @	c #DB8B1B",
".@	c #996019",
"+@	c #7B2731",
"@@	c #8B4527",
"#@	c #936519",
"$@	c #A77B14",
"%@	c #7F1F2B",
"&@	c #3B0611",
"*@	c #AE213E",
"=@	c #C04D58",
"-@	c #BB2B47",
";@	c #C8726E",
">@	c #DDB59D",
",@	c #DABCA1",
"'@	c #B89D84",
")@	c #9E682B",
"!@	c #F59C1F",
"~@	c #ED971E",
"{@	c #B17531",
"]@	c #BBA088",
"^@	c #D19385",
"/@	c #BA2745",
"(@	c #AA203D",
"_@	c #500B19",
":@	c #B12140",
"<@	c #C97370",
"[@	c #DCAF9A",
"}@	c #D4998A",
"|@	c #E2C3A7",
"1@	c #D3B59A",
"2@	c #B69B83",
"3@	c #8B5D2A",
"4@	c #BE7918",
"5@	c #8B6A4E",
"6@	c #C6AA90",
"7@	c #E1C3A7",
"8@	c #E2C3A8",
"9@	c #D08D81",
"0@	c #BA2443",
"a@	c #6E1226",
"b@	c #AC203E",
"c@	c #C3585F",
"d@	c #C56265",
"e@	c #E1BFA5",
"f@	c #E0C2A6",
"g@	c #D0B297",
"h@	c #BDA188",
"i@	c #A9907A",
"j@	c #D0B298",
"k@	c #E1C2A6",
"l@	c #CA7371",
"m@	c #C76E6C",
"n@	c #82172D",
"o@	c #31050D",
"p@	c #971B36",
"q@	c #BA2644",
"r@	c #CE867D",
"s@	c #DCB29B",
"t@	c #DCB19B",
"u@	c #DFC1A5",
"v@	c #D1B398",
"w@	c #D5B79C",
"x@	c #E2C2A7",
"y@	c #DCB39C",
"z@	c #BE4955",
"A@	c #070001",
"B@	c #0C0102",
"C@	c #6D1225",
"D@	c #BE7A71",
"E@	c #D5B89E",
"F@	c #795F53",
"G@	c #040001",
"H@	c #2A251E",
"I@	c #96826F",
"J@	c #CFB39A",
"K@	c #DDBFA4",
"L@	c #A7917C",
"M@	c #483E34",
"N@	c #1A1611",
"O@	c #766656",
"P@	c #B9A089",
"Q@	c #D3B79C",
"R@	c #CFB399",
"S@	c #A38D78",
"T@	c #473D33",
"U@	c #060403",
"V@	c #2C251F",
"W@	c #635548",
"X@	c #9B8672",
"Y@	c #B39B85",
"Z@	c #CEB299",
"`@	c #DDC0A4",
" #	c #DEC1A5",
".#	c #DDC0A5",
"+#	c #DCBFA4",
"@#	c #C8AE95",
"##	c #B19983",
"$#	c #927E6C",
"%#	c #5A4D41",
"&#	c #1C1813",
"*#	c #000001",
"=#	c #241E19",
"-#	c #332C25",
";#	c #4B4036",
">#	c #3C332B",
"                                                                                                    ",
"                                                                                                    ",
"                                                                                                    ",
"                                                                                                    ",
"                                    . + @                                                           ",
"                                    # $ $ %                                                         ",
"                                    & * $ $ =                                                       ",
"                                - ; > , ' ) $ !                                                     ",
"                              ~ { $ $ $ ] ^ ] * / ( _ :                                             ",
"                              & < = [ } | 1 $ { 2 3 3 4 5 6 7 8                                     ",
"                                  9 0 # { $ $ $ $ $ $ $ $ $ $ ) a b                                 ",
"                                c d 2 $ $ $ $ $ $ $ $ $ $ $ $ $ $ 2 e f                             ",
"                              g h $ $ $ $ $ $ $ $ $ $ $ $ $ $ $ $ $ { i j k                         ",
"                            l m $ $ $ $ $ $ $ $ $ $ $ $ $ $ $ $ $ $ n o o p q                       ",
"                          r s $ $ $ $ $ $ $ $ $ $ $ $ $ $ $ $ $ $ $ t o o o u v                     ",
"                        w m $ $ $ $ $ $ $ $ $ $ $ $ $ $ $ $ $ $ $ $ n o o o o x y                   ",
"                      z A $ $ $ $ $ $ $ $ $ $ $ $ $ $ $ $ $ $ $ $ $ B C o o o o D q                 ",
"                    E F $ $ $ $ $ $ $ $ $ $ $ $ $ $ $ $ $ $ $ $ $ $ $ G H o o o I J K               ",
"                    L { $ $ $ $ $ $ $ $ $ $ $ $ $ $ $ $ $ $ $ $ $ $ $ $ M N O P Q $ R               ",
"                  S T $ $ $ $ $ $ $ $ $ $ $ $ $ $ $ $ $ $ $ $ $ $ $ $ $ $ $ $ $ $ $ U V             ",
"                  W $ $ $ $ $ $ $ $ $ $ $ $ $ $ ) X { $ $ $ $ $ $ $ $ $ $ $ $ $ $ $ $ Y Z           ",
"                ` ] $ $ $ $ $ $ $ $ $ $ $ $ $ $ $  ...P +.$ $ $ $ $ $ $ $ $ $ $ $ $ $ 2 @.          ",
"                #.$ $ $ $ $ $ $ $ $ $ $ $ $ $ $ $ $ $ +.$.%.&. .B M ) Q ..*.=.) $ $ $ $ Y -.        ",
"              ;.m >.%.Q $ $ $ $ $ $ $ $ $ { ) B $ $ $ $ $  .t ,.'.%.).!.~.M $ $ $ $ $ $ 2 {.        ",
"              ].{ ^.o !.{ /.) $ $ $ $ $ $ $ $ X (.=.(.M $ $ $ $ $ $ $ $ $ $ $ M (.~.+.B $ _.        ",
"            :.<.$ G ^.[.%.o I t $ $ $ $ $ $ $ }.|.1.n ,.).P ~.G ) )  .+.=.2.$.O 3.{ $ $ $ 4.5.      ",
"            6.7.~.{ $ 8.o o o I G $ $ $ $ $ 3 9.9 0.a.b./.~.2.c.H H c.,...d.a 7 # $ $ $ $ X e.      ",
"            f.o o C +.N o o o o t $ $ $ $ $ 3 g.9 9 9 9 h.i.+ $ $ 2 |.j.@.k.9 9 , $ $ $ $ 3 l.      ",
"            m.o o o n.[.n.o o o n $ $ $ $ $ 3 o.9 9 9 9 9 9 p.q.r.s.t.9 9 9 9 9 u.3 $ $ $ $ .       ",
"            v.o o o o $.(.H w.*.{ $ $ $ $ $ 3 x.:.9 9 9 9 9 9 9 :.9 9 9 9 9 9 9 y.{ $ $ $ $ z.      ",
"        9 9 A.o o o o B.X $ { $ $ $ $ $ $ $ $ * C.D.E.F.G.H.9 9 -.9 9 9 9 9 9 I.J.K.$ $ $ $ L.      ",
"        9 9 M.o o o o o n $ $ $ $ $ $ $ $ { $ $ N.O.P.Q.R.S.T.U.V.W.X.Y.U.Z.`. +) $ $ $ $ $ z.      ",
"    9 9 9 9 .+o o o o o N $ $ $ $ $ $ ) %.H +.M w.++@+#+$+%+&+*+=+-+;+>+$+,+'+~.$ $ $ $ $ $ !   9 9 ",
"      9 9 9 )+o o o o o n $ $ $ $ $ $ t o o !+) o ~+{+]+^+/+(+_+:+<+[+}+|+1+2+(.3.3+$ $ $ 3 4+    9 ",
"        9 9 5+o o o o I X $ $ $ $ $ $ 6+o o c.M H o 7+8+9+0+a+b+b+b+b+c+d+e+f+B g+w.$ $ $ X h+      ",
"            i+j+o o o %.$ $ $ $ $ $ $ M ,.!+3.$ +.^.$.k+l+m+b+b+b+b+b+b+b+n+o+p+B.).$ $ $ q+        ",
"            r+s+o o I 3.$ $ $ $ $ $ $ $ $ $ $ $ $ $ X t+c+u+u+u+b+b+b+b+b+b+a+v+8.) $ $ $ w+        ",
"              x+~+I t $ $ $ $ $ $ $ $ $ $ $ $ $ y+z+A+B+C+D+E+F+G+H+I+J+K+L+b+M+N+$ $ $ ) O+        ",
"              P+Q+n $ $ $ $ $ $ $ $ $ $ $ $ R+S+T+U+U+U+V+W+X+Y+Z+`+ @.@+@@@#@$@%@$ $ $ F           ",
"                &@*@$ $ $ $ $ $ $ $ $ =@-@;@>@U+U+U+U+U+,@'@)@Z+!@~@{@]@^@/@{ 1 (@$ $ 1.g           ",
"                9 _@:@$ $ $ $ $ $ $ <@[@}@|@U+U+U+U+U+U+U+1@2@3@4@5@6@7@8@9@0@$ $ $ { a@            ",
"                  9 _@b@$ $ $ 0@c@d@e@|@U+U+U+U+U+U+U+U+U+f@g@h@i@j@f@U+U+k@l@m@$ { n@p.            ",
"                    9 o@p@$ q@r@s@t@U+U+U+U+U+U+U+U+U+U+U+U+u@v@w@7@U+U+U+U+x@y@z@#.A@              ",
"                        B@C@D@7@U+U+U+U+U+U+U+U+U+U+U+U+U+U+U+7@U+U+U+U+U+U+U+E@F@G@                ",
"                          9 H@I@J@U+U+U+U+U+U+U+U+U+U+U+U+U+U+U+U+U+U+U+U+K@L@M@                    ",
"                              9 N@O@P@Q@U+U+U+U+U+U+U+U+U+U+U+U+U+U+f@R@S@T@U@                      ",
"                                    9 V@W@X@Y@Z@K@K@`@ #.#`@+#@###$#%#&#                            ",
"                                            9 9 *#=#-#;#>#V@9 9 9                                   ",
"                                                                                                    "};
