/* XPM */
static char * cltb_xpm[] = {
"36 35 350 2",
"  	c None",
". 	c #E9E4B3",
"+ 	c #FEF9C5",
"@ 	c #F3EEBC",
"# 	c #FFF5AD",
"$ 	c #FFF7B9",
"% 	c #D5D0A2",
"& 	c #D6D1A2",
"* 	c #FEEA6C",
"= 	c #FEEC79",
"- 	c #FAF4BD",
"; 	c #FEEC7A",
"> 	c #FEE964",
", 	c #FEEE85",
"' 	c #FFF5AC",
") 	c #E7E2B0",
"! 	c #E8E2B0",
"~ 	c #FEEF8F",
"{ 	c #FEE965",
"] 	c #FFEF8A",
"^ 	c #FFF39F",
"/ 	c #FDF4AE",
"( 	c #FDEF9C",
"_ 	c #FEE967",
": 	c #FFF08F",
"< 	c #FFF193",
"[ 	c #FEEA69",
"} 	c #F3E8A0",
"| 	c #F2E499",
"1 	c #FDDB2E",
"2 	c #FFF08E",
"3 	c #FFF195",
"4 	c #FEEC7B",
"5 	c #D4CD95",
"6 	c #D1C683",
"7 	c #FDDE4B",
"8 	c #FEE86C",
"9 	c #FFF197",
"0 	c #FEEA6B",
"a 	c #FFF299",
"b 	c #FAEFA0",
"c 	c #CFCA9B",
"d 	c #DFD492",
"e 	c #E9D166",
"f 	c #F2D139",
"g 	c #FBDB39",
"h 	c #FEEA70",
"i 	c #FEEC78",
"j 	c #FEEF8C",
"k 	c #FEEA6D",
"l 	c #FFF196",
"m 	c #FCF19E",
"n 	c #F3E586",
"o 	c #ECDF8A",
"p 	c #E4DDA5",
"q 	c #D7D2A3",
"r 	c #DDD9AA",
"s 	c #E8E3B2",
"t 	c #EFEAB8",
"u 	c #F6F1BC",
"v 	c #FDF2AD",
"w 	c #FEE98C",
"x 	c #FDDF57",
"y 	c #FDD80F",
"z 	c #FDD701",
"A 	c #FDDC37",
"B 	c #FEEA73",
"C 	c #FEEA71",
"D 	c #FDDC34",
"E 	c #FEE85F",
"F 	c #FEE966",
"G 	c #FFF092",
"H 	c #FFF29B",
"I 	c #FEEA68",
"J 	c #FEEE88",
"K 	c #FFF3A6",
"L 	c #FEF8BD",
"M 	c #FBF6C2",
"N 	c #F6F1BE",
"O 	c #EEE9B7",
"P 	c #E7E2B2",
"Q 	c #F5E5AD",
"R 	c #FFFAC6",
"S 	c #FFF8BF",
"T 	c #FEE67C",
"U 	c #FDDB3C",
"V 	c #FDDE40",
"W 	c #FEEB75",
"X 	c #FEEB73",
"Y 	c #FDDB31",
"Z 	c #FDDE3B",
"` 	c #FFEF8D",
" .	c #FEEE86",
"..	c #FEED82",
"+.	c #FFF3A4",
"@.	c #FFFAC5",
"#.	c #FDF5BF",
"$.	c #D7B374",
"%.	c #CA892C",
"&.	c #F3E0A7",
"*.	c #FEE67E",
"=.	c #FDE049",
"-.	c #FEEC76",
";.	c #FEEB74",
">.	c #FEE357",
",.	c #FFF29C",
"'.	c #FEEA6A",
").	c #FCF3BE",
"!.	c #DCA75C",
"~.	c #D38A1B",
"{.	c #F1DBA1",
"].	c #FFF9C2",
"^.	c #FDDF5A",
"/.	c #FDD702",
"(.	c #FEE252",
"_.	c #FEEC77",
":.	c #FEEB76",
"<.	c #FDDD3D",
"[.	c #FDE04C",
"}.	c #FEED7E",
"|.	c #FFF39D",
"1.	c #FFEE87",
"2.	c #FEF094",
"3.	c #FBF2BC",
"4.	c #DBA356",
"5.	c #C87F00",
"6.	c #C98000",
"7.	c #D38813",
"8.	c #F0D69A",
"9.	c #FFF6B8",
"0.	c #FDDA36",
"a.	c #FEE35A",
"b.	c #FDDE43",
"c.	c #FDDE42",
"d.	c #FEEF8A",
"e.	c #FEED83",
"f.	c #FBF0B7",
"g.	c #DA9F50",
"h.	c #D28500",
"i.	c #D58901",
"j.	c #D98F0D",
"k.	c #F0D393",
"l.	c #FFF4AF",
"m.	c #FDDF48",
"n.	c #FFEF89",
"o.	c #FBEEAF",
"p.	c #DFA349",
"q.	c #D48801",
"r.	c #CC8100",
"s.	c #D48C05",
"t.	c #DE9508",
"u.	c #E29C0D",
"v.	c #F3D38C",
"w.	c #FEF3A3",
"x.	c #FDE14E",
"y.	c #FDDA2C",
"z.	c #FEEA72",
"A.	c #FEED7D",
"B.	c #FCECA4",
"C.	c #EAAF44",
"D.	c #E09809",
"E.	c #DA9005",
"F.	c #BB7901",
"G.	c #C38407",
"H.	c #E49E0C",
"I.	c #E9A40F",
"J.	c #EDAA13",
"K.	c #F8D483",
"L.	c #FEEF90",
"M.	c #FEE253",
"N.	c #FDD921",
"O.	c #FEE96F",
"P.	c #FEE45B",
"Q.	c #FEE045",
"R.	c #FEEA93",
"S.	c #F7BD41",
"T.	c #EFAD14",
"U.	c #E8A30E",
"V.	c #DE9709",
"W.	c #E5A310",
"X.	c #F0AD14",
"Y.	c #F4B317",
"Z.	c #F7B819",
"`.	c #FDD977",
" +	c #FDD80D",
".+	c #FDD816",
"++	c #FEE86A",
"@+	c #FDDA27",
"#+	c #FDD80A",
"$+	c #FEE65A",
"%+	c #FEEC83",
"&+	c #FFC73E",
"*+	c #FCBE1C",
"=+	c #F7B719",
"-+	c #F0AE14",
";+	c #D4950D",
">+	c #EEAF17",
",+	c #F9BA1A",
"'+	c #FED976",
")+	c #FEE664",
"!+	c #FEE45D",
"~+	c #FDDB2D",
"{+	c #FEE963",
"]+	c #FEEE8B",
"^+	c #FFC73B",
"/+	c #FFC21E",
"(+	c #E3A816",
"_+	c #F4B91C",
":+	c #FFE182",
"<+	c #FEE45C",
"[+	c #FDDA2A",
"}+	c #FEE14A",
"|+	c #FFD062",
"1+	c #E3AC1A",
"2+	c #F2B81A",
"3+	c #FEE890",
"4+	c #FEE55F",
"5+	c #FDD811",
"6+	c #FEE75D",
"7+	c #FEEE89",
"8+	c #FEDA81",
"9+	c #DDA819",
"0+	c #FCF0A4",
"a+	c #FDDC33",
"b+	c #FEED84",
"c+	c #EADFA9",
"d+	c #FFF4A8",
"e+	c #FEE561",
"f+	c #FEE34E",
"g+	c #FEED7F",
"h+	c #F0EBB9",
"i+	c #D4CFA0",
"j+	c #FEF3A2",
"k+	c #FDEE9A",
"l+	c #F5D278",
"m+	c #F5CF6E",
"n+	c #FDE47A",
"o+	c #FDDC44",
"p+	c #FDD705",
"q+	c #FDD918",
"r+	c #F9F4C1",
"s+	c #E6E1B0",
"t+	c #FEF29B",
"u+	c #FEEE87",
"v+	c #FFF3A3",
"w+	c #FBEDAB",
"x+	c #F1CD84",
"y+	c #EAAB2F",
"z+	c #EEAB14",
"A+	c #E79B19",
"B+	c #EAA844",
"C+	c #F4D492",
"D+	c #FDEFA9",
"E+	c #FEEA91",
"F+	c #FDE05D",
"G+	c #FDD817",
"H+	c #FDE055",
"I+	c #F1ECB9",
"J+	c #FEF095",
"K+	c #FEF3A1",
"L+	c #F9E9B0",
"M+	c #ECC276",
"N+	c #E6A21E",
"O+	c #EBA711",
"P+	c #F1B015",
"Q+	c #F6B519",
"R+	c #EAA536",
"S+	c #F4D089",
"T+	c #FDF2BB",
"U+	c #FFF7BC",
"V+	c #FEEE9E",
"W+	c #F9F4C0",
"X+	c #FFF8BD",
"Y+	c #FFF9C4",
"Z+	c #F5E1A7",
"`+	c #E6B566",
" @	c #E19B10",
".@	c #E7A20E",
"+@	c #EEAA12",
"@@	c #F4B217",
"#@	c #FCBD1C",
"$@	c #E89D19",
"%@	c #EAA019",
"&@	c #EDA51A",
"*@	c #F0AD2B",
"=@	c #F8D07E",
"-@	c #FEF0B5",
";@	c #DED9AA",
">@	c #FDF7C2",
",@	c #F1D89D",
"'@	c #E0A853",
")@	c #DD9509",
"!@	c #E39D0B",
"~@	c #EAA50F",
"{@	c #F6B518",
"]@	c #FBBC1B",
"^@	c #FEC11D",
"/@	c #FEC11E",
"(@	c #EDA41A",
"_@	c #F0A91A",
":@	c #F3AE1B",
"<@	c #F6B31C",
"[@	c #F9B924",
"}@	c #FDD273",
"|@	c #FFEEAF",
"1@	c #ECE7B5",
"2@	c #DA9B40",
"3@	c #E6A00D",
"4@	c #ECA811",
"5@	c #F2B116",
"6@	c #F8B819",
"7@	c #FFC11E",
"8@	c #F8BC1D",
"9@	c #E39918",
"0@	c #ECA41A",
"a@	c #EFA91A",
"b@	c #F9B81D",
"c@	c #FCBC1D",
"d@	c #FEC01E",
"e@	c #FFC21F",
"f@	c #EBBE53",
"g@	c #CC8806",
"h@	c #E29B0A",
"i@	c #EEAC13",
"j@	c #FABB1A",
"k@	c #FDC01D",
"l@	c #F5BA1D",
"m@	c #D5A218",
"n@	c #C98A15",
"o@	c #E8A319",
"p@	c #F2AE1B",
"q@	c #FBBC1D",
"r@	c #FDC11E",
"s@	c #E7A410",
"t@	c #F1AF15",
"u@	c #F6B618",
"v@	c #FBBD1C",
"w@	c #FEC01D",
"x@	c #F1B71C",
"y@	c #EFB01B",
"z@	c #FDBF1E",
"A@	c #EBB21B",
"B@	c #DBA013",
"C@	c #F8B91A",
"D@	c #FABD1C",
"E@	c #EDB41B",
"F@	c #F3B91C",
"G@	c #FEC21E",
"H@	c #FCC01E",
"I@	c #E5AD19",
"                                                                        ",
"                                  .                                     ",
"                                  + @                                   ",
"                                @ # $ %                                 ",
"                              & $ * = -                                 ",
"                              - ; > , ' )                               ",
"                            ! ~ { ] ^ ^ /                               ",
"                            ( _ : ^ ^ < [ }                             ",
"                          | 1 2 ^ ^ 3 [ > 4 5                           ",
"                        6 7 8 , ^ 9 0 > * a b                           ",
"                c d e f g h i i j k > [ l ^ ^ m n o p q                 ",
"    r s t u v w x y z A B i i C D E F G ^ ^ ^ H [ > I J K L M N O P     ",
"  Q R S T U z z z z V W i i X Y z Z ` ^ ^ ^ ^  .> > > > > F ..+.@.#.$.  ",
"  %.&.R *.z z z z =.-.i i ;.A z z >.3 ^ ^ ^ ,.'.> > > > > > > +.).!.    ",
"    ~.{.].^.z /.(._.i i :.<.z z [.i }.|.^ ^ 1.> > > > > > > 2.3.4.5.    ",
"    6.7.8.9.0.a.i i i -.b.z z c._.i i d.^ |.0 > > > > > > e.f.g.h.      ",
"      i.j.k.l.= i i _.m.z z A W i i i = 9 n.> > > > > > ;.o.p.q.r.      ",
"      s.t.u.v.w.i i x.z z y.z.i i i i i A.'.> > > > > '.B.C.D.E.F.      ",
"      G.H.I.J.K.L.M./.z N.O.i i i i i i P.Q.> > > > { R.S.T.U.V.        ",
"        W.X.Y.Z.`. +z .+++i i i i i i :.@+#+$+> > > %+&+*+=+-+;+        ",
"          >+,+*+'+z #+)+i i i i i i i !+z z ~+{+> > ]+^+/+*+(+          ",
"            _+/+:+/.<+i i i i i i i -.[+z z z }+> > j |+/+1+            ",
"              2+3+M.i i i i i i i i 4+z z z z 5+6+> 7+8+9+              ",
"                0+i i i i i i i i _.~+z z z z z a+> b+c+                ",
"                d+i i i i i i i i e+z z z z z z z f+g+h+                ",
"              i+j+i i i i i i J k+l+m+n+o+p+z z z q+:.r+                ",
"              s+t+i i i u+v+w+x+y+z+A+B+C+D+E+F+G+z H++                 ",
"              I+J+, K+$ L+M+N+O+P+Q+A+A+A+R+S+T+U+V+*.R                 ",
"              W+X+Y+Z+`+ @.@+@@@,+#@A+A+$@%@&@*@=@-@R R ;@              ",
"              >@,@'@)@!@~@-+{@]@^@/@A+$@%@(@_@:@<@[@}@|@1@              ",
"              2@E.D.3@4@5@6@*+7@/+8@9@%@0@a@:@<@b@c@d@e@f@              ",
"              g@h@U.i@Y.j@k@/+l@m@    n@o@p@<@b@q@d@/+r@                ",
"                s@t@u@v@w@x@                y@q@z@/+/+A@                ",
"                B@C@D@E@                        F@G@H@                  ",
"                  I@                                                    "};
