/* XPM */
static char * collect_xpm[] = {
"49 50 525 2",
"  	c None",
". 	c #E9E4B4",
"+ 	c #FEF9C5",
"@ 	c #F6F1BE",
"# 	c #F3EEBB",
"$ 	c #FFFAC6",
"% 	c #DCD7A8",
"& 	c #D7D2A2",
"* 	c #FFF3A4",
"= 	c #FFF4AA",
"- 	c #FBF6C2",
"; 	c #FAF5C1",
"> 	c #FFF6B5",
", 	c #FEEA68",
"' 	c #FEEA6B",
") 	c #FFF7B8",
"! 	c #EAE5B3",
"~ 	c #E7E2B0",
"{ 	c #FFF9C0",
"] 	c #FEEB75",
"^ 	c #FEE964",
"/ 	c #FEEF8E",
"( 	c #FEF9C3",
"_ 	c #FEF8C3",
": 	c #FEEE88",
"< 	c #FEEE84",
"[ 	c #FFF39E",
"} 	c #FFF5AD",
"| 	c #F5F0BC",
"1 	c #F2EDBA",
"2 	c #FFF29E",
"3 	c #FEE965",
"4 	c #FEEF89",
"5 	c #FFF39F",
"6 	c #FFF7B4",
"7 	c #DBD5A5",
"8 	c #D3CE9F",
"9 	c #FFF5B0",
"0 	c #FEE967",
"a 	c #FEE966",
"b 	c #FEF08D",
"c 	c #FFF29C",
"d 	c #FEEC75",
"e 	c #FBF2AD",
"f 	c #F9F0B1",
"g 	c #FEE45C",
"h 	c #FFF091",
"i 	c #FFF39D",
"j 	c #FEEC76",
"k 	c #FEEB72",
"l 	c #EBE3A6",
"m 	c #E5DEA7",
"n 	c #FDE05E",
"o 	c #FDDB27",
"p 	c #FFF090",
"q 	c #FEEC79",
"r 	c #FEF094",
"s 	c #BFB988",
"t 	c #FCE57C",
"u 	c #FDDA29",
"v 	c #FEE96D",
"w 	c #FEEE86",
"x 	c #FEED7D",
"y 	c #FEED7E",
"z 	c #F5EBA3",
"A 	c #F1DB72",
"B 	c #FDDC32",
"C 	c #FEEA71",
"D 	c #FEEC78",
"E 	c #FFF193",
"F 	c #FEED80",
"G 	c #E6DB8F",
"H 	c #BFB576",
"I 	c #C9C497",
"J 	c #D8D3A2",
"K 	c #E8E2AC",
"L 	c #F1E292",
"M 	c #F5DD6D",
"N 	c #FCDB47",
"O 	c #FDD806",
"P 	c #FDDD39",
"Q 	c #FEEB73",
"R 	c #FEED7C",
"S 	c #FEED81",
"T 	c #FFF39C",
"U 	c #F9EA8C",
"V 	c #F7EDA8",
"W 	c #EBE5B1",
"X 	c #E8E3B1",
"Y 	c #D3CD9D",
"Z 	c #CDC89A",
"` 	c #E3DEAE",
" .	c #EBE6B4",
"..	c #F3EDBA",
"+.	c #FFF7BB",
"@.	c #FEEE9E",
"#.	c #FEE475",
"$.	c #FDDA2E",
"%.	c #FDD702",
"&.	c #FDD701",
"*.	c #FDDE42",
"=.	c #FEE357",
"-.	c #FDDF3C",
";.	c #FEEA6D",
">.	c #FFF299",
",.	c #FEEB71",
"'.	c #FFF5AF",
").	c #FFF9C3",
"!.	c #FCF7C3",
"~.	c #EFEAB8",
"{.	c #E5DFAF",
"].	c #DCD7A7",
"^.	c #EEE3AD",
"/.	c #FFFAC4",
"(.	c #FFF5B2",
"_.	c #FEEB91",
":.	c #FEE05E",
"<.	c #FDD819",
"[.	c #FDE049",
"}.	c #FEEC77",
"|.	c #FDD704",
"1.	c #FDD703",
"2.	c #FEE555",
"3.	c #FEEA69",
"4.	c #FFF196",
"5.	c #FEEA6C",
"6.	c #FEEF8F",
"7.	c #FFF9C1",
"8.	c #FEF7C2",
"9.	c #D6BF86",
"0.	c #CB9547",
"a.	c #F7E9B0",
"b.	c #FEEA89",
"c.	c #FDD705",
"d.	c #FEE252",
"e.	c #FEE560",
"f.	c #FDD809",
"g.	c #FEEF8A",
"h.	c #FFF4A7",
"i.	c #FDF6C1",
"j.	c #E0B26A",
"k.	c #D69232",
"l.	c #F6E5AD",
"m.	c #FDDF56",
"n.	c #FDD707",
"o.	c #FEE459",
"p.	c #FEE664",
"q.	c #FDD80E",
"r.	c #FEE55E",
"s.	c #FEEF8C",
"t.	c #FEEA6E",
"u.	c #FEED7F",
"v.	c #FDF5C0",
"w.	c #E0AE64",
"x.	c #C57D00",
"y.	c #D58F28",
"z.	c #F4E2A9",
"A.	c #FFF5B5",
"B.	c #FDD810",
"C.	c #FEE55F",
"D.	c #FEE768",
"E.	c #FDD816",
"F.	c #FEE354",
"G.	c #FFF298",
"H.	c #FFEF8C",
"I.	c #FFF8BD",
"J.	c #FCF4BF",
"K.	c #DEAB60",
"L.	c #D28500",
"M.	c #D48C20",
"N.	c #F2DEA3",
"O.	c #FEF0A1",
"P.	c #FDD80F",
"Q.	c #FDD818",
"R.	c #FEE765",
"S.	c #FEE86C",
"T.	c #FDD91C",
"U.	c #FDE04B",
"V.	c #FEEE82",
"W.	c #FEEB70",
"X.	c #FFF6B3",
"Y.	c #FCF3BD",
"Z.	c #DDA75B",
"`.	c #C98000",
" +	c #D48B1A",
".+	c #F1DA9D",
"++	c #FEE884",
"@+	c #FDD91F",
"#+	c #FEE86A",
"$+	c #FEE96E",
"%+	c #FDD921",
"&+	c #FDDE3F",
"*+	c #FFF08F",
"=+	c #FFF08E",
"-+	c #FFF3A5",
";+	c #FCF2BB",
">+	c #DCA455",
",+	c #B17000",
"'+	c #AD6E00",
")+	c #D48800",
"!+	c #D68A01",
"~+	c #D99014",
"{+	c #F1D797",
"]+	c #FFF9C2",
"^+	c #FEED88",
"/+	c #FEEA70",
"(+	c #FDDA28",
"_+	c #FDDC34",
":+	c #FEEB74",
"<+	c #FEEC7A",
"[+	c #FFF29A",
"}+	c #FEF095",
"|+	c #FCF1B9",
"1+	c #E0A650",
"2+	c #D58901",
"3+	c #D28600",
"4+	c #CD8200",
"5+	c #D08802",
"6+	c #D98F05",
"7+	c #DC9306",
"8+	c #DF980E",
"9+	c #F3D591",
"0+	c #FFF8BF",
"a+	c #FEED82",
"b+	c #FEEA72",
"c+	c #FDDB30",
"d+	c #FEED84",
"e+	c #FCF0B5",
"f+	c #E7AD4C",
"g+	c #DD9407",
"h+	c #D98F04",
"i+	c #BB7700",
"j+	c #BE7E05",
"k+	c #DD9507",
"l+	c #E09909",
"m+	c #E39D0B",
"n+	c #E7A211",
"o+	c #F5D58B",
"p+	c #FFF6B4",
"q+	c #FDDC36",
"r+	c #FEE96C",
"s+	c #FEE65F",
"t+	c #FDEFAE",
"u+	c #F0B747",
"v+	c #E8A30E",
"w+	c #E39C0B",
"x+	c #DE9507",
"y+	c #D78E04",
"z+	c #DE980A",
"A+	c #E59F0C",
"B+	c #ECA811",
"C+	c #EFAC15",
"D+	c #F8D584",
"E+	c #FEF3A4",
"F+	c #FEEB76",
"G+	c #FDDD3B",
"H+	c #FDD812",
"I+	c #FEE767",
"J+	c #FDD918",
"K+	c #FEE75F",
"L+	c #FEEA6A",
"M+	c #FEEEA3",
"N+	c #F8C044",
"O+	c #F3B116",
"P+	c #EEAA12",
"Q+	c #E8A40F",
"R+	c #CD8B07",
"S+	c #D0910C",
"T+	c #EAA50F",
"U+	c #EDAA12",
"V+	c #F0AE14",
"W+	c #F3B217",
"X+	c #F6B618",
"Y+	c #FBD67B",
"Z+	c #FEE572",
"`+	c #FDD706",
" @	c #FDDC37",
".@	c #FDDE39",
"+@	c #FFEB90",
"@@	c #FEC742",
"#@	c #FBBD1C",
"$@	c #F8B819",
"%@	c #F3B216",
"&@	c #EEAB12",
"*@	c #E2A311",
"=@	c #F2B015",
"-@	c #F5B417",
";@	c #F7B819",
">@	c #FABB1B",
",@	c #FCC024",
"'@	c #FEE476",
")@	c #FEE766",
"!@	c #FEE452",
"~@	c #FFE48B",
"{@	c #FFC21E",
"]@	c #FEC11E",
"^@	c #FCBE1C",
"/@	c #F8B91A",
"(@	c #D89B11",
"_@	c #E5A916",
":@	c #F9B91A",
"<@	c #FBBC1B",
"[@	c #FDBF1D",
"}@	c #FECB52",
"|@	c #FEE478",
"1@	c #FEE14D",
"2@	c #FDDD3C",
"3@	c #FDDA1F",
"4@	c #FEE861",
"5@	c #FFEC9D",
"6@	c #FFC21D",
"7@	c #FFC11E",
"8@	c #DBA316",
"9@	c #E9AF19",
"0@	c #FEC01D",
"a@	c #FFD671",
"b@	c #FEE267",
"c@	c #FDDE43",
"d@	c #FEE868",
"e@	c #FDDF40",
"f@	c #FFF2A8",
"g@	c #FFC42B",
"h@	c #D8A418",
"i@	c #E8B11A",
"j@	c #FFE08E",
"k@	c #FDDE4D",
"l@	c #FEE557",
"m@	c #FFF6B2",
"n@	c #FFCA48",
"o@	c #D19E17",
"p@	c #E2AC19",
"q@	c #FFEAA4",
"r@	c #FDDF4B",
"s@	c #FEE86B",
"t@	c #FEE862",
"u@	c #FDD36E",
"v@	c #CA9A15",
"w@	c #F4EDB4",
"x@	c #FEEB77",
"y@	c #FEE146",
"z@	c #FFF4AC",
"A@	c #DDD29B",
"B@	c #FEF8BF",
"C@	c #FDD80D",
"D@	c #FEE65A",
"E@	c #FFF4A8",
"F@	c #FEF8BD",
"G@	c #FEE460",
"H@	c #FDDC2F",
"I@	c #FEE963",
"J@	c #D0CB9C",
"K@	c #FFF7B9",
"L@	c #FEEE87",
"M@	c #FEF3A2",
"N@	c #FAE79F",
"O@	c #F1C775",
"P@	c #F0C270",
"Q@	c #FAE18D",
"R@	c #FEE886",
"S@	c #FDDE4E",
"T@	c #FEE24B",
"U@	c #FEF3A1",
"V@	c #E5E0AF",
"W@	c #FEF2A0",
"X@	c #FEF6B7",
"Y@	c #F7E4A6",
"Z@	c #EDBC63",
"`@	c #EAA615",
" #	c #EEAA13",
".#	c #E79C19",
"+#	c #E79C1E",
"@#	c #EEBB69",
"##	c #F9E5A8",
"$#	c #FFF5B4",
"%#	c #FEEC93",
"&#	c #FEE164",
"*#	c #FDD91B",
"=#	c #FDD700",
"-#	c #FDD815",
";#	c #FEF09A",
">#	c #F1ECB9",
",#	c #FFF5AE",
"'#	c #FEEE83",
")#	c #FEF29F",
"!#	c #FEF7C1",
"~#	c #F4DC9C",
"{#	c #E8B153",
"]#	c #E7A10F",
"^#	c #EBA710",
"/#	c #F0AD14",
"(#	c #E89D19",
"_#	c #E79B19",
":#	c #E79C1B",
"<#	c #ECB45C",
"[#	c #F8E1A3",
"}#	c #FFF8C3",
"|#	c #FEEFA0",
"1#	c #FEE474",
"2#	c #FDDB37",
"3#	c #FEE98A",
"4#	c #F6F0BD",
"5#	c #FFF4A9",
"6#	c #FEF29D",
"7#	c #FFF7B6",
"8#	c #FDF5BE",
"9#	c #F0D391",
"0#	c #E4A842",
"a#	c #E49D0A",
"b#	c #EDA912",
"c#	c #F1AF15",
"d#	c #F5B518",
"e#	c #E99F18",
"f#	c #EFB351",
"g#	c #F8DD9A",
"h#	c #FEF8C2",
"i#	c #FFF2AC",
"j#	c #FEF2AB",
"k#	c #DED9A9",
"l#	c #FBF0B9",
"m#	c #ECC986",
"n#	c #E09E30",
"o#	c #E1990A",
"p#	c #E5A00D",
"q#	c #EAA60F",
"r#	c #EEAC13",
"s#	c #F7B719",
"t#	c #FDBE1D",
"u#	c #E99E19",
"v#	c #E99F19",
"w#	c #EBA219",
"x#	c #EDA51A",
"y#	c #EFA81A",
"z#	c #F3B745",
"A#	c #FADB92",
"B#	c #FEF6BF",
"C#	c #EDE8B6",
"D#	c #F8EAB1",
"E#	c #E8C07A",
"F#	c #DC951B",
"G#	c #DE9608",
"H#	c #E7A20E",
"I#	c #F4B417",
"J#	c #E89C19",
"K#	c #EBA119",
"L#	c #EDA41A",
"M#	c #F1AC1B",
"N#	c #F3B01B",
"O#	c #F6B31C",
"P#	c #F9BC37",
"Q#	c #FDDB8A",
"R#	c #FFF4BA",
"S#	c #E1D7A2",
"T#	c #F5E4AB",
"U#	c #E3B368",
"V#	c #D99013",
"W#	c #DC9206",
"X#	c #E09809",
"Y#	c #E49E0C",
"Z#	c #E9A40F",
"`#	c #F6B518",
" $	c #F9BA1A",
".$	c #EAA119",
"+$	c #ECA41A",
"@$	c #F1AB1B",
"#$	c #F3AF1B",
"$$	c #F8B61C",
"%$	c #FABA1D",
"&$	c #FCBD1D",
"*$	c #FEC230",
"=$	c #FFDA7F",
"-$	c #FDF1B4",
";$	c #BD8D45",
">$	c #D68B00",
",$	c #E19A0A",
"'$	c #E6A00D",
")$	c #EAA610",
"!$	c #EFAC13",
"~$	c #FDC01D",
"{$	c #F8BC1D",
"]$	c #E09818",
"^$	c #E89E19",
"/$	c #EEA71A",
"($	c #F3AE1B",
"_$	c #F5B21C",
":$	c #FAB91D",
"<$	c #FDBF1E",
"[$	c #F7BD26",
"}$	c #D18B05",
"|$	c #DF9608",
"1$	c #E8A20E",
"2$	c #ECA911",
"3$	c #F1AE15",
"4$	c #FCBD1C",
"5$	c #FEC11D",
"6$	c #F3B91C",
"7$	c #D29F17",
"8$	c #DE9A18",
"9$	c #F7B61C",
"0$	c #FCBC1D",
"a$	c #D4A117",
"b$	c #E9A50F",
"c$	c #F2B116",
"d$	c #EFB61C",
"e$	c #E3A319",
"f$	c #F4B11C",
"g$	c #F7B51C",
"h$	c #FBBC1D",
"i$	c #F5BA1D",
"j$	c #DC9C0F",
"k$	c #EFAD14",
"l$	c #F4B317",
"m$	c #FCC01E",
"n$	c #EAB21B",
"o$	c #E6AA1A",
"p$	c #F9BA1D",
"q$	c #F3B317",
"r$	c #F9BD1D",
"s$	c #E5AE1A",
"t$	c #E7AF1B",
"u$	c #FDC01E",
"v$	c #E5AC18",
"w$	c #F6B91C",
"x$	c #DFA819",
"y$	c #E8B01B",
"z$	c #FABE1D",
"                                                                                                  ",
"                                                                                                  ",
"                                              .                                                   ",
"                                              + @                                                 ",
"                                            # $ $ %                                               ",
"                                          & $ * = -                                               ",
"                                          ; > , ' ) !                                             ",
"                                        ~ { ] ^ ^ / (                                             ",
"                                        _ : ^ ^ < [ } |                                           ",
"                                      1 2 ^ 3 4 5 5 5 6 7                                         ",
"                                    8 9 0 a b 5 5 5 c d e                                         ",
"                                    f g , h 5 5 5 i j ^ k l                                       ",
"                                  m n o p 5 5 5 [ q ^ ^ ^ r s                                     ",
"                                  t u v w 5 5 [ x ^ ^ ^ y [ z                                     ",
"                                A B C D D E 5 F ^ ^ ^ D [ 5 5 G H                                 ",
"                  I J K L M N O P Q D D D R S ^ ^ ^ k c 5 5 5 5 T x U V W X Y                     ",
"      Z `  ...- +.@.#.$.%.&.&.*.] D D D D =.-.^ ^ ;.>.5 5 5 5 5 4 ^ ^ ^ ,.r '.).$ !...~.{.].      ",
"^.+ $ $ /.(._.:.<.&.&.&.&.&.[.}.D D D D g |.1.2.3.4.5 5 5 5 5 i 5.^ ^ ^ ^ ^ ^ ;.6.} 7.$ $ $ 8.9.  ",
"0.a.$ $ b.c.&.&.&.&.&.&.1.d.}.D D D D e.f.&.&.o p 5 5 5 5 5 5 g.^ ^ ^ ^ ^ ^ ^ ^ ^ ^ ' h.$ i.j.    ",
"  k.l.$ 7.m.&.&.&.&.&.n.o.D D D D D p.q.&.&.|.r.s.5 5 5 5 5 [ t.^ ^ ^ ^ ^ ^ ^ ^ ^ ^ u.).v.w.x.    ",
"  x.y.z.$ A.$.&.&.&.B.C.D D D D D D.E.&.&.%.F.D q G.5 5 5 5 H.^ ^ ^ ^ ^ ^ ^ ^ ^ ^ k I.J.K.L.      ",
"    L.M.N.$ O.P.&.Q.R.D D D D D S.T.&.&.&.U.D D D V.[ 5 5 [ W.^ ^ ^ ^ ^ ^ ^ ^ ^ 3.X.Y.Z.L.`.      ",
"    `.L. +.+$ ++@+#+D D D D D $+%+&.&.&.&+j D D D D *+5 5 =+^ ^ ^ ^ ^ ^ ^ ^ ^ 3 -+;+>+L.L.,+      ",
"    '+)+!+~+{+]+^+D D D D D /+(+&.&.&._+:+D D D D D <+[+[ k ^ ^ ^ ^ ^ ^ ^ ^ ^ }+|+1+2+3+4+        ",
"      5+6+7+8+9+0+a+D D D b+c+&.&.&.u C D D D D D D D < *+^ ^ ^ ^ ^ ^ ^ ^ ^ d+e+f+g+h+2+i+        ",
"      j+k+l+m+n+o+p+<+D :+q+&.&.&.T.r+D D D D D D D D }.s+^ ^ ^ ^ ^ ^ ^ ^ :+t+u+v+w+x+y+          ",
"        z+A+v+B+C+D+E+F+G+&.&.&.H+I+D D D D D D D D D p.J+K+^ ^ ^ ^ ^ ^ L+M+N+O+P+Q+w+R+          ",
"        S+T+U+V+W+X+Y+Z+&.&.&.`+e.D D D D D D D D D D  @&..@^ ^ ^ ^ ^ ^ +@@@#@$@%@&@Q+            ",
"          *@=@-@;@>@,@'@&.&.&.=.D D D D D D D D D D )@1.&.1.!@^ ^ ^ ^ ^ ~@{@]@^@/@W+(@            ",
"            _@:@<@[@}@|@&.&.1@D D D D D D D D D D D 2@&.&.&.3@4@^ ^ ^ ^ 5@6@{@7@#@8@              ",
"              9@0@{@a@b@&.c@}.D D D D D D D D D D d@%.&.&.&.&.e@^ ^ ^ ^ f@g@{@]@h@                ",
"                i@{@j@k@ @] D D D D D D D D D D D &+&.&.&.&.&.`+l@^ ^ ^ m@n@]@o@                  ",
"                  p@q@r@b+D D D D D D D D D D D s@c.&.&.&.&.&.&.o t@^ ^ 9 u@v@                    ",
"                    w@x@D D D D D D D D D D D D *.&.&.&.&.&.&.&.&.y@^ ^ z@A@                      ",
"                    B@R D D D D D D D D D D D r+f.&.&.&.&.&.&.&.&.C@D@^ E@!                       ",
"                    F@q D D D D D D D D D D q G@$.|.&.&.&.&.&.&.&.&.H@I@* 1                       ",
"                  J@K@D D D D D D D D D L@M@N@O@P@Q@R@S@|.&.&.&.&.&.&.T@U@-                       ",
"                  V@X.D D D D D D w W@X@Y@Z@`@ #.#+#@###$#%#&#*#=#&.&.-#;#+                       ",
"                  >#,#D D D '#)#) !#~#{#]#^#/#W+(#_#_#:#<#[#}#I.|#1#2#=#3#$                       ",
"                  4#5#F 6#7#/.8#9#0#a#v+b#c#d#/@(#_#_#_#(#e#f#g#h#$ 7.i#j#$ k#                    ",
"                  $ { /.$ l#m#n#o#p#q#r#O+s#>@t#u#_#_#(#v#w#x#y#z#A#B#$ $ $ C#                    ",
"                  $ $ D#E#F#G#w+H#B+V+I#/@#@0@7@u#_#J#v#K#L#y#M#N#O#P#Q#R#$ ..                    ",
"                S#T#U#V#W#X#Y#Z#U+=@`# $^@7@{@{@u#J#u#.$+$y#@$#$O#$$%$&$*$=$-$                    ",
"                ;$>$6+g+,$'$)$!$%@s#<@~${@{@{@{$]$^$.$+$/$@$($_$$$:$&$<$7@{@[$                    ",
"                  }$|$w+1$2$3$-@:@4$5${@{@6$7$      8$/$@$($_$9$:$0$<$7@{@{@a$                    ",
"                    Y#b$&@c$X+>@[@7@]@d$                e$f$g$:$h$<$]@{@{@i$                      ",
"                    j$k$l$$@<@0@m$n$                        o$p$<$]@{@{@{@                        ",
"                      q$ $^@r$s$                                t$u${@{@6$                        ",
"                      v$w$x$                                        y$z$                          ",
"                                                                                                  "};
