/* XPM */
static char * exit_xpm[] = {
"49 50 544 2",
"  	c None",
". 	c #3F687C",
"+ 	c #40687D",
"@ 	c #40697D",
"# 	c #49748A",
"$ 	c #49758B",
"% 	c #49758A",
"& 	c #48748A",
"* 	c #477388",
"= 	c #467086",
"- 	c #436C81",
"; 	c #528097",
"> 	c #538198",
", 	c #538197",
"' 	c #528096",
") 	c #517F95",
"! 	c #4F7C92",
"~ 	c #497488",
"{ 	c #5C8CA4",
"] 	c #5C8DA4",
"^ 	c #5B8CA3",
"/ 	c #5A8AA1",
"( 	c #58889F",
"_ 	c #4D778B",
": 	c #6598B0",
"< 	c #6699B0",
"[ 	c #6598AF",
"} 	c #6396AE",
"| 	c #6194AB",
"1 	c #6EA3BB",
"2 	c #6FA4BC",
"3 	c #6DA1B9",
"4 	c #6A9EB6",
"5 	c #426C81",
"6 	c #4F7482",
"7 	c #77ADC5",
"8 	c #78AEC6",
"9 	c #75ABC3",
"0 	c #72A7BF",
"a 	c #426C80",
"b 	c #507E94",
"c 	c #507380",
"d 	c #80B6CD",
"e 	c #81B8CF",
"f 	c #80B7CE",
"g 	c #7EB5CC",
"h 	c #76A9BF",
"i 	c #40697E",
"j 	c #487389",
"k 	c #4F7D93",
"l 	c #56869D",
"m 	c #5D8FA6",
"n 	c #5B899F",
"o 	c #44636D",
"p 	c #476872",
"q 	c #4A6B76",
"r 	c #527682",
"s 	c #87BED6",
"t 	c #8AC1D9",
"u 	c #89C1D8",
"v 	c #88C0D7",
"w 	c #75A7BB",
"x 	c #476771",
"y 	c #457085",
"z 	c #4D7A90",
"A 	c #55849B",
"B 	c #5C8EA5",
"C 	c #6497AE",
"D 	c #6A9FB7",
"E 	c #6A9CB2",
"F 	c #476772",
"G 	c #4B6D78",
"H 	c #4F727E",
"I 	c #537883",
"J 	c #597E8A",
"K 	c #90C7DE",
"L 	c #93CAE2",
"M 	c #92C9E1",
"N 	c #90C7DF",
"O 	c #72A1B3",
"P 	c #4E717C",
"Q 	c #4A6C77",
"R 	c #466670",
"S 	c #517F94",
"T 	c #4B778D",
"U 	c #436D82",
"V 	c #4A778C",
"W 	c #528198",
"X 	c #5A8BA2",
"Y 	c #6295AC",
"Z 	c #699EB6",
"` 	c #71A6BE",
" .	c #79ADC4",
"..	c #577E8C",
"+.	c #547985",
"@.	c #5B808D",
"#.	c #608693",
"$.	c #648B98",
"%.	c #98CDE4",
"&.	c #9CD2E9",
"*.	c #9CD2E8",
"=.	c #9BD1E7",
"-.	c #99CFE6",
";.	c #6E98A8",
">.	c #597E8B",
",.	c #537782",
"'.	c #4D6F7A",
").	c #486873",
"!.	c #6090A5",
"~.	c #6092A9",
"{.	c #58889E",
"].	c #507E93",
"^.	c #487388",
"/.	c #40687C",
"(.	c #467187",
"_.	c #4F7C93",
":.	c #57879E",
"<.	c #5F91A9",
"[.	c #679BB3",
"}.	c #76ADC5",
"|.	c #7EB4CC",
"1.	c #84BBD3",
"2.	c #87BDD4",
"3.	c #6A94A5",
"4.	c #678E9C",
"5.	c #6D94A3",
"6.	c #7299A9",
"7.	c #9DD1E7",
"8.	c #A4D9EF",
"9.	c #A3D8EE",
"0.	c #9ED3E9",
"a.	c #6F97A6",
"b.	c #658C9A",
"c.	c #5E8391",
"d.	c #567A86",
"e.	c #4E707C",
"f.	c #496A75",
"g.	c #6592A4",
"h.	c #73A8BF",
"i.	c #5D8EA5",
"j.	c #55849A",
"k.	c #4D798E",
"l.	c #446E83",
"m.	c #528197",
"n.	c #6CA1B9",
"o.	c #74AAC2",
"p.	c #7CB2CA",
"q.	c #83BAD2",
"r.	c #91C8E0",
"s.	c #96CBE2",
"t.	c #7FACBD",
"u.	c #739BAA",
"v.	c #7AA2B2",
"w.	c #7FA7B8",
"x.	c #A3D5EA",
"y.	c #ABDFF4",
"z.	c #AADEF4",
"A.	c #A1D3E7",
"B.	c #78A0B0",
"C.	c #7199A8",
"D.	c #69909E",
"E.	c #608593",
"F.	c #648D9C",
"G.	c #7FB3C8",
"H.	c #81B7CF",
"I.	c #7AB0C7",
"J.	c #6A9EB5",
"K.	c #6294AB",
"L.	c #59899F",
"M.	c #517E94",
"N.	c #3F677B",
"O.	c #568398",
"P.	c #79AFC7",
"Q.	c #80B7CF",
"R.	c #88BFD7",
"S.	c #97CEE5",
"T.	c #9ED3EA",
"U.	c #A2D7EE",
"V.	c #92C0D3",
"W.	c #85AEBF",
"X.	c #8BB2C4",
"Y.	c #A8D8ED",
"Z.	c #B1E3F8",
"`.	c #B0E2F7",
" +	c #A1D0E3",
".+	c #84ACBD",
"++	c #7CA5B5",
"@+	c #749CAC",
"#+	c #86B5C7",
"$+	c #93C9E0",
"%+	c #8EC5DC",
"&+	c #86BDD4",
"*+	c #7FB5CC",
"=+	c #77ACC4",
"-+	c #6EA3BA",
";+	c #6698B0",
">+	c #5D8EA4",
",+	c #548399",
"'+	c #4B778C",
")+	c #436B80",
"!+	c #699AAF",
"~+	c #7CB2C9",
"{+	c #8CC3DB",
"]+	c #95CBE3",
"^+	c #A9DDF3",
"/+	c #ADE0F5",
"(+	c #A2CFE3",
"_+	c #95BCCF",
":+	c #ADDBEE",
"<+	c #B7E7FB",
"[+	c #B7E7FA",
"}+	c #B6E6FA",
"|+	c #A1CCDF",
"1+	c #8EB5C8",
"2+	c #8EB8CA",
"3+	c #A0D2E6",
"4+	c #A1D6ED",
"5+	c #93C9E1",
"6+	c #8BC2D9",
"7+	c #82B9D0",
"8+	c #7AB0C8",
"9+	c #699DB4",
"0+	c #57869C",
"a+	c #4E7B91",
"b+	c #456E83",
"c+	c #7AADC2",
"d+	c #8FC6DE",
"e+	c #A0D6ED",
"f+	c #A7DCF2",
"g+	c #B2E4F8",
"h+	c #B5E6FA",
"i+	c #AEDBEE",
"j+	c #B1DDF0",
"k+	c #BBEAFC",
"l+	c #B9E9FC",
"m+	c #A2CADE",
"n+	c #A6D2E5",
"o+	c #AFE1F6",
"p+	c #ACDFF4",
"q+	c #A6DAF0",
"r+	c #9FD4EA",
"s+	c #97CDE4",
"t+	c #7EB3CB",
"u+	c #75AAC2",
"v+	c #6CA0B7",
"w+	c #548095",
"x+	c #50737E",
"y+	c #6A94A3",
"z+	c #8FC1D5",
"A+	c #B8E8FC",
"B+	c #BDEBFC",
"C+	c #BFECFE",
"D+	c #B7E4F6",
"E+	c #B8E8FB",
"F+	c #B4E5F9",
"G+	c #A9DDF2",
"H+	c #A2D7ED",
"I+	c #9AD0E7",
"J+	c #91C8DF",
"K+	c #89BFD7",
"L+	c #7FB4CC",
"M+	c #6FA1B7",
"N+	c #5A8496",
"O+	c #496A74",
"P+	c #5F8592",
"Q+	c #84AFC0",
"R+	c #A2D2E5",
"S+	c #B2E3F8",
"T+	c #BEECFE",
"U+	c #C0EEFE",
"V+	c #C2EEFE",
"W+	c #C1EEFE",
"X+	c #C0EDFE",
"Y+	c #BEECFD",
"Z+	c #BAEAFC",
"`+	c #B1E3F7",
" @	c #A5D9EF",
".@	c #9CD1E7",
"+@	c #8ABED3",
"@@	c #719FB2",
"#@	c #537784",
"$@	c #547884",
"%@	c #618795",
"&@	c #7DA5B5",
"*@	c #89B1C3",
"=@	c #9BC3D6",
"-@	c #B0DDF0",
";@	c #BCEBFC",
">@	c #C3EFFE",
",@	c #C5F0FF",
"'@	c #C4EFFF",
")@	c #C2EFFE",
"!@	c #A5D6EA",
"~@	c #90BED1",
"{@	c #739DAC",
"]@	c #5E8491",
"^@	c #517480",
"/@	c #547984",
"(@	c #628896",
"_@	c #7097A6",
":@	c #7DA6B6",
"<@	c #8CB4C6",
"[@	c #A0CADD",
"}@	c #BCEAFC",
"|@	c #C4EFFE",
"1@	c #C6F1FF",
"2@	c #C6F0FF",
"3@	c #BAE7F8",
"4@	c #A9D4E7",
"5@	c #97BFD2",
"6@	c #87AFC1",
"7@	c #5F8492",
"8@	c #527581",
"9@	c #486973",
"0@	c #496B76",
"a@	c #537783",
"b@	c #648B99",
"c@	c #82AFC1",
"d@	c #9BCBDF",
"e@	c #ACDEF2",
"f@	c #AFDCEF",
"g@	c #99C2D5",
"h@	c #86AEBF",
"i@	c #79A1B1",
"j@	c #6C93A1",
"k@	c #5E8390",
"l@	c #638E9F",
"m@	c #7EB1C5",
"n@	c #93C8DF",
"o@	c #ACE0F5",
"p@	c #BAE9FC",
"q@	c #B1E2F6",
"r@	c #A0D0E4",
"s@	c #82ADBE",
"t@	c #5B818D",
"u@	c #4F727D",
"v@	c #6494A9",
"w@	c #76ABC2",
"x@	c #8AC1D8",
"y@	c #9CD1E8",
"z@	c #AADEF3",
"A@	c #B5E5F9",
"B@	c #B4E0F2",
"C@	c #BDEBFD",
"D@	c #BFECFD",
"E@	c #BCE9FA",
"F@	c #B8E7FA",
"G@	c #B4E4F8",
"H@	c #A9DCF2",
"I@	c #A1D5EB",
"J@	c #8DBFD4",
"K@	c #6993A2",
"L@	c #45646F",
"M@	c #5A899F",
"N@	c #6597AE",
"O@	c #6EA2BA",
"P@	c #76ACC4",
"Q@	c #87BED5",
"R@	c #8FC6DD",
"S@	c #98CEE5",
"T@	c #9FD5EB",
"U@	c #A6DBF0",
"V@	c #ABDBEF",
"W@	c #9CC5D9",
"X@	c #A8D3E6",
"Y@	c #B9E9FB",
"Z@	c #BAE9FB",
"`@	c #ABD5E8",
" #	c #B4E5F8",
".#	c #B0E2F6",
"+#	c #ABDEF3",
"@#	c #96CCE3",
"##	c #8DC3DA",
"$#	c #79ABC0",
"%#	c #567C8B",
"&#	c #477187",
"*#	c #507D93",
"=#	c #59889F",
"-#	c #73A8C0",
";#	c #7BB1C9",
">#	c #83BAD1",
",#	c #93CAE1",
"'#	c #95C3D7",
")#	c #8DB4C6",
"!#	c #A8D6EA",
"~#	c #B6E6F9",
"{#	c #A5D1E4",
"]#	c #92B9CC",
"^#	c #A1CFE3",
"/#	c #ACDFF3",
"(#	c #A7DAF0",
"_#	c #A0D5EB",
":#	c #92C8DF",
"<#	c #81B7CE",
"[#	c #79AEC6",
"}#	c #6796AB",
"|#	c #446D82",
"1#	c #4D798F",
"2#	c #5E8FA6",
"3#	c #679AB1",
"4#	c #7FB5CD",
"5#	c #86BDD5",
"6#	c #8DC1D7",
"7#	c #76A1B1",
"8#	c #7BA3B3",
"9#	c #82ABBC",
"0#	c #A8DAEE",
"a#	c #9FCDE0",
"b#	c #86AFC0",
"c#	c #81A9BA",
"d#	c #91BFD2",
"e#	c #9BD0E7",
"f#	c #94CAE1",
"g#	c #8DC2DA",
"h#	c #85BBD2",
"i#	c #7DB2CA",
"j#	c #6DA1B8",
"k#	c #6496AD",
"l#	c #548094",
"m#	c #528095",
"n#	c #6294AC",
"o#	c #6B9FB6",
"p#	c #72A1B4",
"q#	c #577C89",
"r#	c #688F9D",
"s#	c #7AA3B4",
"t#	c #A6DAEF",
"u#	c #AADDF3",
"v#	c #AADDF2",
"w#	c #99C9DC",
"x#	c #7AA3B3",
"y#	c #759DAC",
"z#	c #6E95A4",
"A#	c #7EABBD",
"B#	c #93C9DF",
"C#	c #8EC4DB",
"D#	c #80B5CC",
"E#	c #79ADC5",
"F#	c #71A5BC",
"G#	c #699CB2",
"H#	c #6092A8",
"I#	c #58879D",
"J#	c #4F7B91",
"K#	c #456F84",
"L#	c #56849A",
"M#	c #6699AF",
"N#	c #6EA2B9",
"O#	c #6EA0B6",
"P#	c #537887",
"Q#	c #4D707B",
"R#	c #557985",
"S#	c #5D828F",
"T#	c #648A98",
"U#	c #7BA6B7",
"V#	c #A2D6EC",
"W#	c #A2D7EC",
"X#	c #93C4D8",
"Y#	c #6D95A3",
"Z#	c #6994A4",
"`#	c #85B9D0",
" $	c #81B6CE",
".$	c #7AAFC7",
"+$	c #73A7BF",
"@$	c #6C9FB6",
"#$	c #5C8CA2",
"$$	c #548197",
"%$	c #4B778B",
"&$	c #436B7F",
"*$	c #41697D",
"=$	c #497489",
"-$	c #59889E",
";$	c #5F90A6",
">$	c #557F92",
",$	c #4C6E79",
"'$	c #517580",
")$	c #577C88",
"!$	c #7DACBF",
"~$	c #98CFE5",
"{$	c #9ACFE6",
"]$	c #8DC0D5",
"^$	c #5B818E",
"/$	c #567A87",
"($	c #50737F",
"_$	c #4B6C77",
":$	c #587E8D",
"<$	c #76AAC1",
"[$	c #74A9C0",
"}$	c #6EA1B8",
"|$	c #6698AF",
"1$	c #5E8FA5",
"2$	c #57859B",
"3$	c #4F7B90",
"4$	c #467085",
"5$	c #4B788D",
"6$	c #4D788D",
"7$	c #45656F",
"8$	c #7EB0C5",
"9$	c #90C6DD",
"0$	c #91C7DE",
"a$	c #86B9CE",
"b$	c #4F737E",
"c$	c #486974",
"d$	c #44646E",
"e$	c #6899AF",
"f$	c #6799B0",
"g$	c #6091A7",
"h$	c #426A7E",
"i$	c #466570",
"j$	c #7DB1C7",
"k$	c #87BCD4",
"l$	c #87BDD5",
"m$	c #7FB2C8",
"n$	c #45646E",
"o$	c #59879B",
"p$	c #446D81",
"q$	c #7CB1C9",
"r$	c #7DB3CA",
"s$	c #7EB4CB",
"t$	c #79ACC3",
"u$	c #4C788C",
"v$	c #527888",
"w$	c #71A6BD",
"x$	c #75A9C1",
"y$	c #73A6BD",
"z$	c #568093",
"A$	c #689BB2",
"B$	c #6A9DB4",
"C$	c #6B9FB5",
"D$	c #6A9CB3",
"E$	c #558195",
"F$	c #6192A9",
"G$	c #6293AA",
"H$	c #6191A8",
"I$	c #517D92",
"J$	c #58879C",
"K$	c #4A7589",
"L$	c #4C788D",
"M$	c #4E7A8F",
"N$	c #4F7C91",
"O$	c #436C80",
"P$	c #456E82",
"Q$	c #456F83",
"R$	c #466F84",
"S$	c #467084",
"                                                                                                  ",
"                                                                                                  ",
"                                                                                                  ",
"                                                                                                  ",
"                                                                                                  ",
"                                                                                                  ",
"                                            . + @ .                                               ",
"                                            # $ % & * = -                                         ",
"                                            ; > , ' ) ! ~                                         ",
"                                            { ] ] ^ / ( _                                         ",
"                                            : < : [ } |                                           ",
"                                            1 2 2 1 3 4                                           ",
"                    5                     6 7 8 8 7 9 0                                           ",
"                  a $ b                   c d e e f g h                                           ",
"                i j k l m n         o p q r s t u v s w x                                         ",
"                y z A B C D E     F G H I J K L L M N O P Q R             S T U                   ",
"              a V W X Y Z ` 8  ...P +.@.#.$.%.&.*.=.-.;.>.,.'.).      !.~.{.].^./.                ",
"              (._.:.<.[.2 }.|.1.2.3.#.4.5.6.7.8.8.9.0.a.b.c.d.e.f.g.h.3 [ i.j.k.l.                ",
"                m.{ C n.o.p.q.t r.s.t.u.v.w.x.y.y.z.A.B.C.D.E.F.G.H.I.0 J.K.L.M.^.N.              ",
"                  O.[.` P.Q.R.N S.T.U.V.W.X.Y.Z.Z.`. +.+++@+#+$+%+&+*+=+-+;+>+,+'+)+              ",
"                      !+~+1.{+]+&.9.^+/+(+_+:+<+[+}+|+1+2+3+4+=.5+6+7+8+0 9+~.0+a+b+              ",
"                        ..c+d+-.e+f+/+g+h+i+j+k+k+l+m+n+o+p+q+r+s+%+&+t+u+v+K.w+                  ",
"                        F x+y+z+9.y.`.h+A+k+B+C+C+B+D+E+F+o+G+H+I+J+K+L+M+N+                      ",
"                        O+r P+5.Q+R+S+<+k+T+U+V+W+X+Y+Z+[+`+p+ @.@+@@@#@                          ",
"                        q $@%@a.&@*@=@-@;@X+>@,@'@)@X+;@E+S+!@~@{@]@^@).                          ",
"                        q /@(@_@:@<@[@-@}@U+|@1@2@>@X+3@4@5@6@v.5.7@8@9@                          ",
"                        0@a@b@c@d@e@F+E+;@X+V+|@|@V+X+k+f@g@h@i@j@k@^@).                          ",
"                        l@m@n@T.q+o@g+[+Z+Y+X+W+W+X+Y+p@}+q@r@s@D.t@u@x                           ",
"                    v@w@e x@5+y@9.z@`.A@[+B@C@D@D@E@p@F@G@o+H@I@J@K@'.L@                          ",
"                M@N@O@P@*+Q@R@S@T@U@p+V@W@X@Y@p@Z@`@i+ #.#+# @0.@###$#%#                          ",
"            &#*#=#K.4 -#;#>#6+,#=.I@'#6@)#!#A@}+~#{#]#^#/#(#_#-.:#K+<#[#}#                        ",
"            |#1#j.2#3#2 7 4#5#%+6#7#u.8#9#0#o+.#.#a#b#c#d#I@e#f#g#h#i#u+j#k#l#                    ",
"            @ # m#/ n#o#-#8+d p#q#P+r#_@s#t#G+u#v#w#x#y#z#A#B#C#2.D#E#F#G#H#I#J#                  ",
"              K#z L#2#M#N#O#P#).Q#R#S#T#U#_#V#H+W#X#Y#r#(@@.Z#`# $.$+$@$k##$$$%$&$                ",
"              *$=$M.-$;$>$      F ,$'$)$!$s+~${${$]$#.^$/$($_$:$<$[$}$|$1$2$3$4$                  ",
"                |#5$6$            7$f.'.8$C#9$0$9$a$a@b$,$c$d$    e$f$g${.M.=$h$                  ",
"                                      i$j$h#k$l$l$m$f.p n$          o$L.m#%$p$                    ",
"                                        [#q$r$s$t+t$                    u$b+                      ",
"                                      v$w$h.x$u+x$y$                                              ",
"                                      z$A$B$C$@$@$D$                                              ",
"                                      E$;$F$G$K.K.H$                                              ",
"                                      I$L#0+I#-$-$J$                                              ",
"                                      K$L$M$J#N$N$3$                                              ",
"                                      *$O$P$Q$R$S$Q$                                              ",
"                                                                                                  ",
"                                                                                                  ",
"                                                                                                  ",
"                                                                                                  ",
"                                                                                                  ",
"                                                                                                  "};
